<svg width="32" height="32" viewBox="0 0 32 32" fill="none" xmlns="http://www.w3.org/2000/svg">
<path d="M5.81818 5.79541C5.40397 5.79541 5.06818 6.1312 5.06818 6.54541C5.06818 6.95962 5.40397 7.29541 5.81818 7.29541V5.79541ZM16.2078 8.70449C15.7936 8.70449 15.4578 9.04028 15.4578 9.45449C15.4578 9.86871 15.7936 10.2045 16.2078 10.2045V8.70449ZM17.039 12.8603C16.6247 12.8603 16.289 13.1961 16.289 13.6103C16.289 14.0246 16.6247 14.3603 17.039 14.3603V12.8603ZM22.4416 14.3603C22.8558 14.3603 23.1916 14.0246 23.1916 13.6103C23.1916 13.1961 22.8558 12.8603 22.4416 12.8603V14.3603ZM11.9213 8.20748L11.1821 8.3342L11.9213 8.20748ZM13.845 19.4288L13.1057 19.5555L13.845 19.4288ZM25.7619 11.8061L26.5002 11.9379L25.7619 11.8061ZM24.3983 19.4424L23.66 19.3106L24.3983 19.4424ZM22.4294 20.3409H15.8162V21.8409H22.4294V20.3409ZM14.5842 19.3021L12.6605 8.08076L11.1821 8.3342L13.1057 19.5555L14.5842 19.3021ZM9.95004 5.79541H5.81818V7.29541H9.95004V5.79541ZM16.2078 10.2045H23.793V8.70449H16.2078V10.2045ZM25.0236 11.6742L23.66 19.3106L25.1366 19.5743L26.5002 11.9379L25.0236 11.6742ZM17.039 14.3603H22.4416V12.8603H17.039V14.3603ZM12.6605 8.08076C12.4342 6.76052 11.2895 5.79541 9.95004 5.79541V7.29541C10.5589 7.29541 11.0792 7.7341 11.1821 8.3342L12.6605 8.08076ZM15.8162 20.3409C15.2073 20.3409 14.687 19.9022 14.5842 19.3021L13.1057 19.5555C13.3321 20.8758 14.4767 21.8409 15.8162 21.8409V20.3409ZM23.793 10.2045C24.5713 10.2045 25.1604 10.9081 25.0236 11.6742L26.5002 11.9379C26.8012 10.2524 25.5053 8.70449 23.793 8.70449V10.2045ZM22.4294 21.8409C23.7617 21.8409 24.9024 20.8858 25.1366 19.5743L23.66 19.3106C23.5535 19.9068 23.035 20.3409 22.4294 20.3409V21.8409Z" fill="black"/>
<path d="M17.6727 16.7046C17.2585 16.7046 16.9227 17.0404 16.9227 17.4546C16.9227 17.8688 17.2585 18.2046 17.6727 18.2046V16.7046ZM21.6727 18.2046C22.0869 18.2046 22.4227 17.8688 22.4227 17.4546C22.4227 17.0404 22.0869 16.7046 21.6727 16.7046V18.2046ZM16.9227 24.2546C16.9227 24.5031 16.7213 24.7046 16.4727 24.7046V26.2046C17.5497 26.2046 18.4227 25.3315 18.4227 24.2546H16.9227ZM16.4727 24.7046C16.2242 24.7046 16.0227 24.5031 16.0227 24.2546H14.5227C14.5227 25.3315 15.3958 26.2046 16.4727 26.2046V24.7046ZM16.0227 24.2546C16.0227 24.0061 16.2242 23.8046 16.4727 23.8046V22.3046C15.3958 22.3046 14.5227 23.1776 14.5227 24.2546H16.0227ZM16.4727 23.8046C16.7213 23.8046 16.9227 24.0061 16.9227 24.2546H18.4227C18.4227 23.1776 17.5497 22.3046 16.4727 22.3046V23.8046ZM22.5227 24.2546C22.5227 24.5031 22.3213 24.7046 22.0727 24.7046V26.2046C23.1497 26.2046 24.0227 25.3315 24.0227 24.2546H22.5227ZM22.0727 24.7046C21.8242 24.7046 21.6227 24.5031 21.6227 24.2546H20.1227C20.1227 25.3315 20.9958 26.2046 22.0727 26.2046V24.7046ZM21.6227 24.2546C21.6227 24.0061 21.8242 23.8046 22.0727 23.8046V22.3046C20.9958 22.3046 20.1227 23.1776 20.1227 24.2546H21.6227ZM22.0727 23.8046C22.3213 23.8046 22.5227 24.0061 22.5227 24.2546H24.0227C24.0227 23.1776 23.1497 22.3046 22.0727 22.3046V23.8046ZM17.6727 18.2046H21.6727V16.7046H17.6727V18.2046Z" fill="#00C569"/>
</svg>
