<svg width="32" height="32" viewBox="0 0 32 32" fill="none" xmlns="http://www.w3.org/2000/svg">
<path d="M11.9508 17.4309L11.4445 19.3025L9.59402 19.3412C9.04098 18.3255 8.72729 17.1634 8.72729 15.9285C8.72729 14.7344 9.02059 13.6083 9.54047 12.6167H9.54086L11.1883 12.9158L11.91 14.5373C11.759 14.9734 11.6767 15.4414 11.6767 15.9285C11.6767 16.4571 11.7734 16.9636 11.9508 17.4309Z" fill="#FBBB00"/>
<path d="M23.1456 14.5834C23.2291 15.019 23.2727 15.4689 23.2727 15.9287C23.2727 16.4442 23.2179 16.9472 23.1136 17.4323C22.7596 19.083 21.8345 20.5245 20.553 21.5445L20.5526 21.5441L18.4776 21.4393L18.1839 19.6239C19.0342 19.1301 19.6987 18.3573 20.0488 17.4323H16.1599V14.5834H20.1055H23.1456Z" fill="#518EF8"/>
<path d="M20.5526 21.544L20.553 21.5444C19.3067 22.5363 17.7235 23.1298 16 23.1298C13.2304 23.1298 10.8225 21.597 9.59412 19.3412L11.9509 17.4309C12.5651 19.054 14.1463 20.2094 16 20.2094C16.7968 20.2094 17.5433 19.9961 18.1838 19.6237L20.5526 21.544Z" fill="#28B446"/>
<path d="M20.6418 10.3852L18.2858 12.2951C17.6229 11.8848 16.8393 11.6478 15.9997 11.6478C14.1041 11.6478 12.4933 12.8562 11.9099 14.5374L9.54068 12.6168H9.54028C10.7507 10.306 13.189 8.72729 15.9997 8.72729C17.7644 8.72729 19.3823 9.3497 20.6418 10.3852Z" fill="#F14336"/>
</svg>
