<svg width="40" height="20" viewBox="0 0 40 20" fill="none" xmlns="http://www.w3.org/2000/svg">
<path d="M13.4598 18.3305H37.2081C37.8391 18.3305 38.3505 17.819 38.3505 17.188V15.4744H30.7821H23.2136C23.2136 15.4744 14.8354 15.9691 9.50469 15.4744C6.44322 15.1903 1.71495 14.332 1.71495 14.332C2.16776 15.1003 3.02671 16.0287 4.64945 16.9024C5.88963 17.5702 6.97048 17.9512 7.86007 18.1625C9.17833 18.4756 10.5474 18.4229 11.9129 18.3703C12.43 18.3504 12.9467 18.3305 13.4598 18.3305Z" fill="#3CB769"/>
<path d="M6.36307 8.61997C3.3867 9.26701 2.05211 10.1486 1.48256 10.9193C0.784347 11.8642 1.11842 13.3199 1.71495 14.332M6.36307 8.61997C7.86101 8.29433 9.52232 7.73107 11.2183 7.06226M6.36307 8.61997C6.36307 8.61997 7.50547 10.3336 8.64788 10.9048C9.79029 11.476 18.3584 12.6184 18.3584 12.6184M28.3544 4.90714C28.3544 4.90714 26.6408 2.33672 24.6416 1.76552C23.9307 1.56241 22.2449 2.18984 20.072 3.14705M28.3544 4.90714L29.1566 5.54888C29.5617 5.87298 30.0651 6.04955 30.5839 6.04955H32.4251M28.3544 4.90714C28.3544 4.90714 23.4992 10.048 21.7856 10.9048L18.3584 12.6184M11.2183 7.06226L12.9319 9.47678M11.2183 7.06226C12.2624 6.65053 13.3196 6.1988 14.3599 5.73789M14.3599 5.73789L16.0735 8.33437M14.3599 5.73789C15.335 5.30588 16.2953 4.86581 17.2159 4.44304M17.2159 4.44304L18.9296 6.90636M17.2159 4.44304L17.3849 4.36544M17.2159 4.44304C17.2724 4.41711 17.3288 4.39124 17.3849 4.36544M20.072 3.14705L21.7856 5.76395M20.072 3.14705C19.2387 3.5141 18.3339 3.92964 17.3849 4.36544M18.3584 12.6184L23.2136 15.4744M23.2136 15.4744C23.2136 15.4744 14.8354 15.9691 9.50469 15.4744C6.44322 15.1903 1.71495 14.332 1.71495 14.332M23.2136 15.4744H30.7821M1.71495 14.332C2.16776 15.1003 3.02671 16.0287 4.64945 16.9024C5.88963 17.5702 6.97048 17.9512 7.86007 18.1625C9.17833 18.4756 10.5474 18.4229 11.9129 18.3703C12.43 18.3504 12.9467 18.3304 13.4598 18.3304H37.2081C37.839 18.3304 38.3505 17.819 38.3505 17.188V15.4744M38.3505 15.4744V15.4067C38.3505 15.0784 38.4477 14.7575 38.6298 14.4843C38.8198 14.1993 38.9171 13.8627 38.9086 13.5203L38.7575 7.47756M38.3505 15.4744H30.7821M30.7821 15.4744C31.688 10.9007 33.1267 8.94784 38.7575 7.47756M38.7575 7.47756L38.664 3.73618C38.6485 3.11656 38.1417 2.62232 37.5219 2.62232H37.0139C36.4902 2.62232 36.0657 3.04684 36.0657 3.5705C36.0657 4.22434 35.7289 4.83206 35.1744 5.17859L34.9306 5.331M32.4251 6.04955C33.3111 6.04955 34.1793 5.80057 34.9306 5.331M32.4251 6.04955H32.6337C33.3834 6.04955 34.118 5.83887 34.7537 5.44155L34.9306 5.331" stroke="black" stroke-width="1.5" stroke-linecap="round"/>
</svg>
